<svg viewBox="0 0 96 96" xmlns="http://www.w3.org/2000/svg" xmlns:xlink="http://www.w3.org/1999/xlink" id="Icons_Pawn_M" overflow="hidden"><g id="Icons"><path d="M64.672 72 64.672 68.416C64.672 68.355 64.672 68.273 64.672 68.205 66.0073 67.4296 66.8385 66.011 66.862 64.467 66.7613 62.1035 64.9036 60.1916 62.544 60.023 62.531 60.017 62.519 60.006 62.505 60L62.452 60C56.752 53.367 54.899 45.468 54.296 37.494 60.1017 34.2977 62.2171 27.0001 59.0208 21.1944 55.8245 15.3887 48.5269 13.2733 42.7212 16.4696 36.9155 19.6659 34.8001 26.9635 37.9964 32.7692 39.0774 34.7327 40.6867 36.3542 42.642 37.45 41.97 45.169 40.051 53.584 34.57 59.987 32.0547 59.98 29.9797 61.9545 29.862 64.467 29.8975 66.1187 30.8493 67.6133 32.331 68.344L32.331 72 28 72 28 81 69 81 69 72ZM52.352 38.342C52.862 44.395 54.299 52.731 59.86 59.967L37.139 59.967C41.239 54.567 43.667 47.445 44.552 38.307L44.552 38.307C47.0733 39.1998 49.8226 39.2125 52.352 38.343ZM38.5 26.985C38.5 21.4622 42.9772 16.985 48.5 16.985 54.0228 16.985 58.5 21.4622 58.5 26.985 58.5 32.5078 54.0228 36.985 48.5 36.985 42.9797 36.9789 38.5061 32.5053 38.5 26.985ZM34.79 61.967 61.924 61.967C63.3047 61.7454 64.6037 62.685 64.8253 64.0657 65.0469 65.4464 64.1073 66.7454 62.7266 66.967 62.4607 67.0097 62.1898 67.0097 61.924 66.967L34.79 66.967C33.4093 67.1886 32.1103 66.249 31.8887 64.8683 31.6671 63.4876 32.6067 62.1886 33.9874 61.967 34.2533 61.9243 34.5242 61.9243 34.79 61.967ZM67 79 30 79 30 74 34.327 74 34.327 68.924C34.482 68.937 34.627 68.967 34.79 68.967L61.924 68.967C62.1746 68.9613 62.4246 68.9383 62.672 68.898L62.672 74 67 74Z"/></g></svg>