<svg viewBox="0 0 96 96" xmlns="http://www.w3.org/2000/svg" xmlns:xlink="http://www.w3.org/1999/xlink" id="Icons_Pawn" overflow="hidden"><path d="M64.672 72 64.672 68.416C66.8425 67.2213 67.6335 64.4933 66.4389 62.3228 65.6487 60.8873 64.1386 59.9968 62.5 60L62.447 60C56.705 53.315 54.863 45.344 54.275 37.306 60.0262 34.1194 62.1052 26.874 58.9186 21.1228 55.7321 15.3717 48.4866 13.2927 42.7355 16.4792 36.9843 19.6658 34.9053 26.9112 38.0918 32.6624 39.1586 34.5876 40.7381 36.1794 42.655 37.261 41.997 45.036 40.088 53.543 34.555 60L34.5 60C32.0225 59.9925 30.008 61.9949 30.0005 64.4725 29.9956 66.1143 30.8879 67.6276 32.327 68.418L32.327 72 28 72 28 81 69 81 69 72Z"/></svg>